<svg width="150" height="150" viewBox="0 0 150 150" fill="none" xmlns="http://www.w3.org/2000/svg">
<path opacity="0.2" d="M108.055 58.5209C108.055 76.6944 93.3222 91.4269 75.1487 91.4269" stroke="#00E075" stroke-width="16.453"/>
<path d="M108.055 91.4269C108.055 73.2534 93.3222 58.5209 75.1487 58.5209" stroke="white" stroke-width="16.453"/>
<path d="M108.054 91.4269C108.054 109.6 93.3219 124.333 75.1484 124.333" stroke="white" stroke-width="16.453"/>
<path opacity="0.2" d="M42.2425 91.4269C42.2425 109.6 56.975 124.333 75.1484 124.333" stroke="#00E075" stroke-width="16.453"/>
<path opacity="0.2" d="M42.2422 58.5209C42.2422 76.6944 56.9747 91.4269 75.1482 91.4269" stroke="#00E075" stroke-width="16.453"/>
<path d="M42.2422 91.4269C42.2422 73.2534 56.9747 58.5209 75.1482 58.5209" stroke="#00E075" stroke-width="16.453"/>
<path d="M42.2422 58.5209C42.2422 40.3474 56.9747 25.6149 75.1482 25.6149" stroke="#00E075" stroke-width="16.453"/>
<path opacity="0.2" d="M108.055 58.5209C108.055 40.3474 93.3222 25.6149 75.1487 25.6149" stroke="#00E075" stroke-width="16.453"/>
<path d="M34.0156 58.5209H50.4686V116.106C50.4686 125.193 43.1024 132.559 34.0156 132.559V132.559V58.5209Z" fill="#00E075"/>
</svg>
