<?xml version="1.0" standalone="no"?><!DOCTYPE svg PUBLIC "-//W3C//DTD SVG 1.1//EN" "http://www.w3.org/Graphics/SVG/1.1/DTD/svg11.dtd"><svg t="1627310909876" class="icon" viewBox="0 0 1024 1024" version="1.1" xmlns="http://www.w3.org/2000/svg" p-id="15884" xmlns:xlink="http://www.w3.org/1999/xlink" width="200" height="200"><defs><style type="text/css">@font-face { font-family: feedback-iconfont; src: url("//at.alicdn.com/t/font_1031158_1uhr8ri0pk5.eot?#iefix") format("embedded-opentype"), url("//at.alicdn.com/t/font_1031158_1uhr8ri0pk5.woff2") format("woff2"), url("//at.alicdn.com/t/font_1031158_1uhr8ri0pk5.woff") format("woff"), url("//at.alicdn.com/t/font_1031158_1uhr8ri0pk5.ttf") format("truetype"), url("//at.alicdn.com/t/font_1031158_1uhr8ri0pk5.svg#iconfont") format("svg"); }
</style></defs><path d="M512 512m-512 0a512 512 0 1 0 1024 0 512 512 0 1 0-1024 0Z" fill="#00EF8B" p-id="15885"></path><path d="M591.872 432.128h144.384v144.384H591.872zM447.488 630.784c0 29.696-24.576 54.272-54.272 54.272s-54.272-24.576-54.272-54.272 24.576-54.272 54.272-54.272h54.272V432.128h-54.272C283.648 432.128 194.56 521.216 194.56 630.784S283.648 829.44 393.216 829.44s198.656-89.088 198.656-198.656v-54.272H447.488v54.272zM646.144 359.424H808.96V215.04H646.144c-109.568 0-198.656 89.088-198.656 198.656v18.432h144.384v-18.432c0-29.696 24.576-54.272 54.272-54.272z" fill="#FFFFFF" p-id="15886"></path><path d="M591.872 432.128H447.488v144.384h144.384z" fill="#16FF99" p-id="15887"></path></svg>