<svg width="300" height="300" viewBox="0 0 300 300" fill="none" xmlns="http://www.w3.org/2000/svg">
<path opacity="0.2" d="M183.055 93.5209C183.055 111.694 168.322 126.427 150.149 126.427" stroke="#00E075" stroke-width="16.453"/>
<path d="M183.055 126.427C183.055 108.253 168.322 93.5209 150.149 93.5209" stroke="white" stroke-width="16.453"/>
<path d="M183.054 126.427C183.054 144.6 168.322 159.333 150.148 159.333" stroke="white" stroke-width="16.453"/>
<path opacity="0.2" d="M117.242 126.427C117.242 144.6 131.975 159.333 150.148 159.333" stroke="#00E075" stroke-width="16.453"/>
<path opacity="0.2" d="M117.242 93.5209C117.242 111.694 131.975 126.427 150.148 126.427" stroke="#00E075" stroke-width="16.453"/>
<path d="M117.242 126.427C117.242 108.253 131.975 93.5209 150.148 93.5209" stroke="#00E075" stroke-width="16.453"/>
<path d="M117.242 93.5209C117.242 75.3474 131.975 60.6149 150.148 60.6149" stroke="#00E075" stroke-width="16.453"/>
<path opacity="0.2" d="M183.055 93.5209C183.055 75.3474 168.322 60.6149 150.149 60.6149" stroke="#00E075" stroke-width="16.453"/>
<path d="M109.016 93.5209H125.469V151.106C125.469 160.193 118.102 167.559 109.016 167.559V93.5209Z" fill="#00E075"/>
<path d="M87.7266 242.867V237.523H73.1016V228.242H89.5547V222.875H66.4922V257H73.1016V242.867H87.7266ZM96.4922 221V226.32H104.086V251.703H96.4922V257H117.938V251.703H110.672V221H96.4922ZM123.07 244.086V244.578C123.07 246.438 123.336 248.156 123.867 249.734C124.398 251.297 125.18 252.656 126.211 253.812C127.227 254.969 128.477 255.875 129.961 256.531C131.461 257.172 133.164 257.492 135.07 257.492C136.961 257.492 138.648 257.172 140.133 256.531C141.617 255.875 142.867 254.969 143.883 253.812C144.898 252.656 145.672 251.297 146.203 249.734C146.734 248.156 147 246.438 147 244.578V244.086C147 242.242 146.734 240.539 146.203 238.977C145.672 237.398 144.898 236.031 143.883 234.875C142.852 233.719 141.594 232.812 140.109 232.156C138.625 231.5 136.93 231.172 135.023 231.172C133.117 231.172 131.422 231.5 129.938 232.156C128.469 232.812 127.227 233.719 126.211 234.875C125.18 236.031 124.398 237.398 123.867 238.977C123.336 240.539 123.07 242.242 123.07 244.086ZM129.586 244.578V244.086C129.586 243.055 129.688 242.078 129.891 241.156C130.094 240.234 130.414 239.422 130.852 238.719C131.289 238.016 131.852 237.461 132.539 237.055C133.227 236.648 134.055 236.445 135.023 236.445C136.008 236.445 136.844 236.648 137.531 237.055C138.219 237.461 138.781 238.016 139.219 238.719C139.641 239.422 139.953 240.234 140.156 241.156C140.359 242.078 140.461 243.055 140.461 244.086V244.578C140.461 245.641 140.359 246.641 140.156 247.578C139.953 248.5 139.641 249.305 139.219 249.992C138.781 250.695 138.219 251.25 137.531 251.656C136.844 252.062 136.023 252.266 135.07 252.266C134.086 252.266 133.242 252.062 132.539 251.656C131.852 251.25 131.289 250.695 130.852 249.992C130.414 249.305 130.094 248.5 129.891 247.578C129.688 246.641 129.586 245.641 129.586 244.578ZM154.664 257H160.383L163.078 243.453L163.594 240.875L164.133 243.453L166.922 257H172.641L177.188 231.641H171.211L169.336 246.594L169.008 249.055L168.562 246.641L165.82 231.641H161.461L158.719 246.711L158.273 249.125L157.969 246.711L156.07 231.641H150.117L154.664 257ZM181.617 257H188.156V238.977C188.375 238.633 188.617 238.32 188.883 238.039C189.148 237.758 189.445 237.516 189.773 237.312C190.18 237.031 190.641 236.82 191.156 236.68C191.688 236.539 192.266 236.469 192.891 236.469C193.641 236.469 194.312 236.547 194.906 236.703C195.5 236.844 196.008 237.102 196.43 237.477C196.852 237.852 197.172 238.367 197.391 239.023C197.625 239.664 197.742 240.484 197.742 241.484V257H204.258V241.391C204.258 239.547 204.039 237.984 203.602 236.703C203.18 235.406 202.586 234.344 201.82 233.516C201.039 232.703 200.117 232.109 199.055 231.734C197.992 231.359 196.82 231.172 195.539 231.172C194.539 231.172 193.594 231.312 192.703 231.594C191.812 231.875 190.992 232.281 190.242 232.812C189.805 233.125 189.391 233.477 189 233.867C188.609 234.258 188.25 234.688 187.922 235.156L187.523 231.641H181.617V257ZM226.805 250.039C226.805 250.43 226.703 250.789 226.5 251.117C226.312 251.445 226.023 251.734 225.633 251.984C225.227 252.234 224.703 252.438 224.062 252.594C223.438 252.734 222.703 252.805 221.859 252.805C221.156 252.805 220.469 252.734 219.797 252.594C219.141 252.453 218.555 252.227 218.039 251.914C217.523 251.617 217.102 251.227 216.773 250.742C216.445 250.242 216.258 249.648 216.211 248.961H210C210 249.992 210.25 251.023 210.75 252.055C211.266 253.07 212.016 253.977 213 254.773C213.984 255.586 215.203 256.242 216.656 256.742C218.125 257.242 219.812 257.492 221.719 257.492C223.453 257.492 225.023 257.305 226.43 256.93C227.836 256.539 229.039 256 230.039 255.312C231.023 254.625 231.781 253.812 232.312 252.875C232.859 251.922 233.133 250.883 233.133 249.758C233.133 248.539 232.859 247.492 232.312 246.617C231.781 245.727 231.039 244.969 230.086 244.344C229.133 243.734 228 243.234 226.688 242.844C225.375 242.453 223.953 242.133 222.422 241.883C221.359 241.727 220.484 241.547 219.797 241.344C219.109 241.125 218.57 240.883 218.18 240.617C217.773 240.367 217.492 240.086 217.336 239.773C217.18 239.445 217.102 239.094 217.102 238.719C217.102 238.344 217.188 237.992 217.359 237.664C217.547 237.32 217.812 237.023 218.156 236.773C218.531 236.492 219.016 236.273 219.609 236.117C220.203 235.961 220.898 235.883 221.695 235.883C222.633 235.883 223.43 236 224.086 236.234C224.758 236.469 225.289 236.781 225.68 237.172C225.961 237.469 226.172 237.805 226.312 238.18C226.453 238.539 226.523 238.93 226.523 239.352H233.039C233.039 238.18 232.781 237.094 232.266 236.094C231.75 235.094 231.008 234.227 230.039 233.492C229.055 232.773 227.859 232.211 226.453 231.805C225.047 231.383 223.461 231.172 221.695 231.172C220.008 231.172 218.492 231.383 217.148 231.805C215.805 232.227 214.664 232.797 213.727 233.516C212.789 234.234 212.07 235.07 211.57 236.023C211.07 236.977 210.82 237.977 210.82 239.023C210.82 240.102 211.062 241.055 211.547 241.883C212.047 242.711 212.734 243.438 213.609 244.062C214.484 244.703 215.531 245.25 216.75 245.703C217.984 246.141 219.344 246.508 220.828 246.805C222 247.023 222.969 247.242 223.734 247.461C224.5 247.68 225.117 247.914 225.586 248.164C226.039 248.43 226.352 248.711 226.523 249.008C226.711 249.305 226.805 249.648 226.805 250.039Z" fill="white"/>
</svg>
