<svg width="576" height="150" viewBox="0 0 576 150" fill="none" xmlns="http://www.w3.org/2000/svg">
<path d="M211.816 87.668V74.3086H175.254V51.1055H216.387V37.6875H158.73V123H175.254V87.668H211.816Z" fill="#17233A"/>
<path d="M233.73 33V46.3008H252.715V109.758H233.73V123H287.344V109.758H269.18V33H233.73Z" fill="#17233A"/>
<path d="M300.176 90.7148V91.9453C300.176 96.5938 300.84 100.891 302.168 104.836C303.496 108.742 305.449 112.141 308.027 115.031C310.566 117.922 313.691 120.188 317.402 121.828C321.152 123.43 325.41 124.23 330.176 124.23C334.902 124.23 339.121 123.43 342.832 121.828C346.543 120.188 349.668 117.922 352.207 115.031C354.746 112.141 356.68 108.742 358.008 104.836C359.336 100.891 360 96.5938 360 91.9453V90.7148C360 86.1055 359.336 81.8477 358.008 77.9414C356.68 73.9961 354.746 70.5781 352.207 67.6875C349.629 64.7969 346.484 62.5312 342.773 60.8906C339.062 59.25 334.824 58.4297 330.059 58.4297C325.293 58.4297 321.055 59.25 317.344 60.8906C313.672 62.5312 310.566 64.7969 308.027 67.6875C305.449 70.5781 303.496 73.9961 302.168 77.9414C300.84 81.8477 300.176 86.1055 300.176 90.7148ZM316.465 91.9453V90.7148C316.465 88.1367 316.719 85.6953 317.227 83.3906C317.734 81.0859 318.535 79.0547 319.629 77.2969C320.723 75.5391 322.129 74.1523 323.848 73.1367C325.566 72.1211 327.637 71.6133 330.059 71.6133C332.52 71.6133 334.609 72.1211 336.328 73.1367C338.047 74.1523 339.453 75.5391 340.547 77.2969C341.602 79.0547 342.383 81.0859 342.891 83.3906C343.398 85.6953 343.652 88.1367 343.652 90.7148V91.9453C343.652 94.6016 343.398 97.1016 342.891 99.4453C342.383 101.75 341.602 103.762 340.547 105.48C339.453 107.238 338.047 108.625 336.328 109.641C334.609 110.656 332.559 111.164 330.176 111.164C327.715 111.164 325.605 110.656 323.848 109.641C322.129 108.625 320.723 107.238 319.629 105.48C318.535 103.762 317.734 101.75 317.227 99.4453C316.719 97.1016 316.465 94.6016 316.465 91.9453Z" fill="#17233A"/>
<path d="M379.16 123H393.457L401.484 82.6875L402.832 89.1328L409.805 123H424.102L435.469 59.6016H420.527L415.84 96.9844L415.02 103.137L413.906 97.1016L407.051 59.6016H396.152L389.297 97.2773L388.184 103.312L382.676 59.6016H367.793L379.16 123Z" fill="#17233A"/>
<path d="M446.543 123H462.891V77.9414C463.438 77.082 464.043 76.3008 464.707 75.5977C465.371 74.8945 466.113 74.2891 466.934 73.7812C467.949 73.0781 469.102 72.5508 470.391 72.1992C471.719 71.8477 473.164 71.6719 474.727 71.6719C476.602 71.6719 478.281 71.8672 479.766 72.2578C481.25 72.6094 482.52 73.2539 483.574 74.1914C484.629 75.1289 485.43 76.418 485.977 78.0586C486.562 79.6602 486.855 81.7109 486.855 84.2109V123H503.145V83.9766C503.145 79.3672 502.598 75.4609 501.504 72.2578C500.449 69.0156 498.965 66.3594 497.051 64.2891C495.098 62.2578 492.793 60.7734 490.137 59.8359C487.48 58.8984 484.551 58.4297 481.348 58.4297C478.848 58.4297 476.484 58.7812 474.258 59.4844C472.031 60.1875 469.98 61.2031 468.105 62.5312C467.012 63.3125 465.977 64.1914 465 65.168C464.023 66.1445 463.125 67.2188 462.305 68.3906L461.309 59.6016H446.543V123Z" fill="#17233A"/>
<path d="M559.512 105.598C559.512 106.574 559.258 107.473 558.75 108.293C558.281 109.113 557.559 109.836 556.582 110.461C555.566 111.086 554.258 111.594 552.656 111.984C551.094 112.336 549.258 112.512 547.148 112.512C545.391 112.512 543.672 112.336 541.992 111.984C540.352 111.633 538.887 111.066 537.598 110.285C536.309 109.543 535.254 108.566 534.434 107.355C533.613 106.105 533.145 104.621 533.027 102.902H517.5C517.5 105.48 518.125 108.059 519.375 110.637C520.664 113.176 522.539 115.441 525 117.434C527.461 119.465 530.508 121.105 534.141 122.355C537.812 123.605 542.031 124.23 546.797 124.23C551.133 124.23 555.059 123.762 558.574 122.824C562.09 121.848 565.098 120.5 567.598 118.781C570.059 117.062 571.953 115.031 573.281 112.688C574.648 110.305 575.332 107.707 575.332 104.895C575.332 101.848 574.648 99.2305 573.281 97.043C571.953 94.8164 570.098 92.9219 567.715 91.3594C565.332 89.8359 562.5 88.5859 559.219 87.6094C555.938 86.6328 552.383 85.832 548.555 85.207C545.898 84.8164 543.711 84.3672 541.992 83.8594C540.273 83.3125 538.926 82.707 537.949 82.043C536.934 81.418 536.23 80.7148 535.84 79.9336C535.449 79.1133 535.254 78.2344 535.254 77.2969C535.254 76.3594 535.469 75.4805 535.898 74.6602C536.367 73.8008 537.031 73.0586 537.891 72.4336C538.828 71.7305 540.039 71.1836 541.523 70.793C543.008 70.4023 544.746 70.207 546.738 70.207C549.082 70.207 551.074 70.5 552.715 71.0859C554.395 71.6719 555.723 72.4531 556.699 73.4297C557.402 74.1719 557.93 75.0117 558.281 75.9492C558.633 76.8477 558.809 77.8242 558.809 78.8789H575.098C575.098 75.9492 574.453 73.2344 573.164 70.7344C571.875 68.2344 570.02 66.0664 567.598 64.2305C565.137 62.4336 562.148 61.0273 558.633 60.0117C555.117 58.957 551.152 58.4297 546.738 58.4297C542.52 58.4297 538.73 58.957 535.371 60.0117C532.012 61.0664 529.16 62.4922 526.816 64.2891C524.473 66.0859 522.676 68.1758 521.426 70.5586C520.176 72.9414 519.551 75.4414 519.551 78.0586C519.551 80.7539 520.156 83.1367 521.367 85.207C522.617 87.2773 524.336 89.0938 526.523 90.6562C528.711 92.2578 531.328 93.625 534.375 94.7578C537.461 95.8516 540.859 96.7695 544.57 97.5117C547.5 98.0586 549.922 98.6055 551.836 99.1523C553.75 99.6992 555.293 100.285 556.465 100.91C557.598 101.574 558.379 102.277 558.809 103.02C559.277 103.762 559.512 104.621 559.512 105.598Z" fill="#17233A"/>
<path opacity="0.2" d="M108.055 58.5208C108.055 76.6942 93.3222 91.4268 75.1487 91.4268" stroke="#00E075" stroke-width="16.453"/>
<path d="M108.055 91.4267C108.055 73.2533 93.3222 58.5208 75.1487 58.5208" stroke="#17233A" stroke-width="16.453"/>
<path d="M108.054 91.4268C108.054 109.6 93.3219 124.333 75.1484 124.333" stroke="#17233A" stroke-width="16.453"/>
<path opacity="0.2" d="M42.2425 91.4268C42.2425 109.6 56.975 124.333 75.1484 124.333" stroke="#00E075" stroke-width="16.453"/>
<path opacity="0.2" d="M42.2422 58.5208C42.2422 76.6942 56.9747 91.4268 75.1482 91.4268" stroke="#00E075" stroke-width="16.453"/>
<path d="M42.2422 91.4267C42.2422 73.2533 56.9747 58.5208 75.1482 58.5208" stroke="#00E075" stroke-width="16.453"/>
<path d="M42.2422 58.5207C42.2422 40.3473 56.9747 25.6147 75.1482 25.6147" stroke="#00E075" stroke-width="16.453"/>
<path opacity="0.2" d="M108.055 58.5207C108.055 40.3473 93.3222 25.6147 75.1487 25.6147" stroke="#00E075" stroke-width="16.453"/>
<path d="M34.0156 58.5208H50.4686V116.106C50.4686 125.193 43.1024 132.559 34.0156 132.559V58.5208Z" fill="#00E075"/>
</svg>
