<svg width="133" height="32" viewBox="0 0 133 32" fill="none" xmlns="http://www.w3.org/2000/svg">
<rect width="32" height="32" rx="8" fill="url(#paint0_linear_56_97)"/>
<path d="M15.5 13.5L9.5 25.5" stroke="white" stroke-width="3" stroke-linecap="round" stroke-linejoin="round"/>
<path d="M9 13.5C9 9.63401 12.134 6.5 16 6.5C19.866 6.5 23 9.63401 23 13.5C23 16.4148 21.2184 18.9135 18.6848 19.9666M13.1207 19.8823C13.9989 20.2791 14.9736 20.5 16 20.5C16.8808 20.5 17.7236 20.3373 18.5 20.0404C18.562 20.0166 18.6236 19.9921 18.6848 19.9666M21.5 25.5L18.6848 19.9666" stroke="white" stroke-width="3" stroke-linecap="round"/>
<path d="M58.296 24L54.6 17.472H53.016V24H49.656V7.248H55.944C57.24 7.248 58.344 7.48 59.256 7.944C60.168 8.392 60.848 9.008 61.296 9.792C61.76 10.56 61.992 11.424 61.992 12.384C61.992 13.488 61.672 14.488 61.032 15.384C60.392 16.264 59.44 16.872 58.176 17.208L62.184 24H58.296ZM53.016 14.952H55.824C56.736 14.952 57.416 14.736 57.864 14.304C58.312 13.856 58.536 13.24 58.536 12.456C58.536 11.688 58.312 11.096 57.864 10.68C57.416 10.248 56.736 10.032 55.824 10.032H53.016V14.952ZM76.911 17.064C76.911 17.544 76.879 17.976 76.815 18.36H67.095C67.175 19.32 67.511 20.072 68.103 20.616C68.695 21.16 69.423 21.432 70.287 21.432C71.535 21.432 72.423 20.896 72.951 19.824H76.575C76.191 21.104 75.455 22.16 74.367 22.992C73.279 23.808 71.943 24.216 70.359 24.216C69.079 24.216 67.927 23.936 66.903 23.376C65.895 22.8 65.103 21.992 64.527 20.952C63.967 19.912 63.687 18.712 63.687 17.352C63.687 15.976 63.967 14.768 64.527 13.728C65.087 12.688 65.871 11.888 66.879 11.328C67.887 10.768 69.047 10.488 70.359 10.488C71.623 10.488 72.751 10.76 73.743 11.304C74.751 11.848 75.527 12.624 76.071 13.632C76.631 14.624 76.911 15.768 76.911 17.064ZM73.431 16.104C73.415 15.24 73.103 14.552 72.495 14.04C71.887 13.512 71.143 13.248 70.263 13.248C69.431 13.248 68.727 13.504 68.151 14.016C67.591 14.512 67.247 15.208 67.119 16.104H73.431ZM86.2515 10.512C87.8355 10.512 89.1155 11.016 90.0915 12.024C91.0675 13.016 91.5555 14.408 91.5555 16.2V24H88.1955V16.656C88.1955 15.6 87.9315 14.792 87.4035 14.232C86.8755 13.656 86.1555 13.368 85.2435 13.368C84.3155 13.368 83.5795 13.656 83.0355 14.232C82.5075 14.792 82.2435 15.6 82.2435 16.656V24H78.8835V10.704H82.2435V12.36C82.6915 11.784 83.2595 11.336 83.9475 11.016C84.6515 10.68 85.4195 10.512 86.2515 10.512ZM93.4067 17.304C93.4067 15.96 93.6707 14.768 94.1987 13.728C94.7427 12.688 95.4787 11.888 96.4067 11.328C97.3347 10.768 98.3667 10.488 99.5027 10.488C100.367 10.488 101.191 10.68 101.975 11.064C102.759 11.432 103.383 11.928 103.847 12.552V6.24H107.255V24H103.847V22.032C103.431 22.688 102.847 23.216 102.095 23.616C101.343 24.016 100.471 24.216 99.4787 24.216C98.3587 24.216 97.3347 23.928 96.4067 23.352C95.4787 22.776 94.7427 21.968 94.1987 20.928C93.6707 19.872 93.4067 18.664 93.4067 17.304ZM103.871 17.352C103.871 16.536 103.711 15.84 103.391 15.264C103.071 14.672 102.639 14.224 102.095 13.92C101.551 13.6 100.967 13.44 100.343 13.44C99.7187 13.44 99.1427 13.592 98.6147 13.896C98.0867 14.2 97.6547 14.648 97.3187 15.24C96.9987 15.816 96.8387 16.504 96.8387 17.304C96.8387 18.104 96.9987 18.808 97.3187 19.416C97.6547 20.008 98.0867 20.464 98.6147 20.784C99.1587 21.104 99.7347 21.264 100.343 21.264C100.967 21.264 101.551 21.112 102.095 20.808C102.639 20.488 103.071 20.04 103.391 19.464C103.711 18.872 103.871 18.168 103.871 17.352ZM122.416 17.064C122.416 17.544 122.384 17.976 122.32 18.36H112.6C112.68 19.32 113.016 20.072 113.608 20.616C114.2 21.16 114.928 21.432 115.792 21.432C117.04 21.432 117.928 20.896 118.456 19.824H122.08C121.696 21.104 120.96 22.16 119.872 22.992C118.784 23.808 117.448 24.216 115.864 24.216C114.584 24.216 113.432 23.936 112.408 23.376C111.4 22.8 110.608 21.992 110.032 20.952C109.472 19.912 109.192 18.712 109.192 17.352C109.192 15.976 109.472 14.768 110.032 13.728C110.592 12.688 111.376 11.888 112.384 11.328C113.392 10.768 114.552 10.488 115.864 10.488C117.128 10.488 118.256 10.76 119.248 11.304C120.256 11.848 121.032 12.624 121.576 13.632C122.136 14.624 122.416 15.768 122.416 17.064ZM118.936 16.104C118.92 15.24 118.608 14.552 118 14.04C117.392 13.512 116.648 13.248 115.768 13.248C114.936 13.248 114.232 13.504 113.656 14.016C113.096 14.512 112.752 15.208 112.624 16.104H118.936ZM127.749 12.768C128.181 12.064 128.741 11.512 129.429 11.112C130.133 10.712 130.933 10.512 131.829 10.512V14.04H130.941C129.885 14.04 129.085 14.288 128.541 14.784C128.013 15.28 127.749 16.144 127.749 17.376V24H124.389V10.704H127.749V12.768Z" fill="black"/>
<defs>
<linearGradient id="paint0_linear_56_97" x1="1.5" y1="7.10134e-07" x2="32" y2="30.5" gradientUnits="userSpaceOnUse">
<stop stop-color="#855AFF"/>
<stop offset="1" stop-color="#5A6BFF"/>
</linearGradient>
</defs>
</svg>
