<svg width="256" height="256" viewBox="0 0 256 256" fill="none" xmlns="http://www.w3.org/2000/svg">
<rect width="256" height="256" fill="url(#paint0_linear_5848_36137)"/>
<g filter="url(#filter0_d_5848_36137)">
<path d="M85.43 95.5627C90.2595 89.7375 97.0437 85.5695 105.783 83.0586L54.9108 172.432H72.2401L104.575 118.612V172.432H130.275L164.254 107.046V172.432H189.091V75.6767H164.254L130.275 143.139V75.6767C125.791 74.2707 121.421 73.5676 117.167 73.5676C108.657 73.5676 100.091 75.5763 91.4668 79.5937C82.9578 83.5106 75.9435 88.6327 70.4241 94.9601C65.0197 101.187 62.3175 107.414 62.3175 113.641C62.3175 122.78 67.3233 127.35 79.627 127.35C76.0961 115.938 76.9794 105.824 85.43 95.5627Z" fill="url(#paint1_linear_5848_36137)"/>
</g>
<defs>
<filter id="filter0_d_5848_36137" x="54.9108" y="73.5676" width="134.18" height="100.865" filterUnits="userSpaceOnUse" color-interpolation-filters="sRGB">
<feFlood flood-opacity="0" result="BackgroundImageFix"/>
<feColorMatrix in="SourceAlpha" type="matrix" values="0 0 0 0 0 0 0 0 0 0 0 0 0 0 0 0 0 0 127 0" result="hardAlpha"/>
<feOffset dy="2"/>
<feComposite in2="hardAlpha" operator="out"/>
<feColorMatrix type="matrix" values="0 0 0 0 0 0 0 0 0 0 0 0 0 0 0 0 0 0 0.04 0"/>
<feBlend mode="normal" in2="BackgroundImageFix" result="effect1_dropShadow_5848_36137"/>
<feBlend mode="normal" in="SourceGraphic" in2="effect1_dropShadow_5848_36137" result="shape"/>
</filter>
<linearGradient id="paint0_linear_5848_36137" x1="4.07922e-05" y1="256" x2="256" y2="4.07922e-05" gradientUnits="userSpaceOnUse">
<stop stop-color="#2917FF"/>
<stop offset="0.505208" stop-color="#A90EF2"/>
<stop offset="1" stop-color="#FC289C"/>
</linearGradient>
<linearGradient id="paint1_linear_5848_36137" x1="122.001" y1="73.5676" x2="122.001" y2="172.432" gradientUnits="userSpaceOnUse">
<stop stop-color="white"/>
<stop offset="1" stop-color="white" stop-opacity="0.95"/>
</linearGradient>
</defs>
</svg>
